<svg width="20" height="20" viewBox="0 0 20 20" fill="none" xmlns="http://www.w3.org/2000/svg">
<path fill-rule="evenodd" clip-rule="evenodd" d="M10.2106 12.8246C13.1788 12.8246 15.5849 10.1602 15.5849 6.87344C15.5849 3.58668 13.1788 0.922241 10.2106 0.922241C7.24249 0.922241 4.83634 3.58668 4.83634 6.87344C4.83634 10.1602 7.24249 12.8246 10.2106 12.8246ZM13.5453 19.8616C17.31 19.9845 20 20.0723 20 18.2633C20 15.9542 15.6172 14.0822 10.2106 14.0822C4.80411 14.0822 0.421265 15.9542 0.421265 18.2633C0.421265 20.0723 3.11122 19.9845 6.87597 19.8616C7.91676 19.8277 9.03969 19.791 10.2106 19.791C11.3816 19.791 12.5045 19.8277 13.5453 19.8616Z" fill="white"/>
</svg>
