<svg width="18" height="18" viewBox="0 0 18 18" fill="none" xmlns="http://www.w3.org/2000/svg">
<path d="M7.37614 0.956116C3.4913 0.956116 0.326904 4.12052 0.326904 8.00535C0.326904 11.8902 3.4913 15.0546 7.37614 15.0546C9.0655 15.0546 10.6169 14.4547 11.8329 13.4589L16.0417 17.6678C16.1067 17.7354 16.1845 17.7894 16.2706 17.8266C16.3567 17.8639 16.4493 17.8835 16.5431 17.8845C16.6369 17.8854 16.7299 17.8677 16.8168 17.8322C16.9036 17.7968 16.9825 17.7443 17.0488 17.678C17.1151 17.6117 17.1675 17.5328 17.203 17.446C17.2384 17.3591 17.2562 17.2661 17.2553 17.1723C17.2543 17.0786 17.2346 16.9859 17.1974 16.8998C17.1602 16.8137 17.1062 16.7359 17.0386 16.671L12.8297 12.4621C13.8255 11.2462 14.4254 9.69471 14.4254 8.00535C14.4254 4.12052 11.261 0.956116 7.37614 0.956116ZM7.37614 2.36596C10.499 2.36596 13.0155 4.88245 13.0155 8.00535C13.0155 11.1283 10.499 13.6447 7.37614 13.6447C4.25324 13.6447 1.73675 11.1283 1.73675 8.00535C1.73675 4.88245 4.25324 2.36596 7.37614 2.36596Z" fill="white"/>
</svg>
